<?xml version="1.0" encoding="UTF-8" standalone="no"?>
<svg
   id="_Слой_2"
   data-name="Слой 2"
   viewBox="0 0 165 314"
   version="1.1"
   sodipodi:docname="installerSidebar_контур.svg"
   width="165"
   height="314"
   xml:space="preserve"
   inkscape:version="1.4.4 (dcaf3e7, 2026-05-05)"
   xmlns:inkscape="http://www.inkscape.org/namespaces/inkscape"
   xmlns:sodipodi="http://sodipodi.sourceforge.net/DTD/sodipodi-0.dtd"
   xmlns="http://www.w3.org/2000/svg"
   xmlns:svg="http://www.w3.org/2000/svg"><sodipodi:namedview
     id="namedview46"
     pagecolor="#ffffff"
     bordercolor="#000000"
     borderopacity="0.25"
     inkscape:showpageshadow="2"
     inkscape:pageopacity="0.0"
     inkscape:pagecheckerboard="0"
     inkscape:deskcolor="#d1d1d1"
     inkscape:zoom="1.8884564"
     inkscape:cx="120.73353"
     inkscape:cy="110.14287"
     inkscape:window-width="1470"
     inkscape:window-height="831"
     inkscape:window-x="0"
     inkscape:window-y="34"
     inkscape:window-maximized="0"
     inkscape:current-layer="_Слой_2" /><defs
     id="defs4"><style
       id="style1">
      .cls-1 {
        filter: url(#drop-shadow-2);
      }

      .cls-2 {
        fill: #505050;
      }

      .cls-3 {
        fill: #fff;
      }

      .cls-4 {
        fill: #768081;
      }

      .cls-5 {
        fill: #99a6a8;
      }

      .cls-6 {
        fill: #049ca1;
      }

      .cls-7, .cls-8, .cls-9 {
        fill: none;
      }

      .cls-10 {
        fill: #46608b;
      }

      .cls-11 {
        filter: url(#drop-shadow-1);
      }

      .cls-12 {
        fill: #404040;
      }

      .cls-8 {
        stroke-width: 1.5px;
      }

      .cls-8, .cls-9 {
        stroke: #fff;
        stroke-linecap: round;
        stroke-miterlimit: 10;
      }

      .cls-13 {
        fill: #edc315;
      }

      .cls-14 {
        fill: #3a3a3a;
      }

      .cls-15 {
        fill: #24a48b;
      }

      .cls-16 {
        fill: #0090ae;
      }

      .cls-17 {
        fill: #4c81d9;
      }

      .cls-18 {
        fill: #f26b18;
      }

      .cls-19 {
        clip-path: url(#clippath);
      }

      .cls-20 {
        fill: #f66a27;
      }
    </style><clipPath
       id="clippath"><rect
         class="cls-7"
         width="165.33"
         height="314"
         id="rect1"
         x="0"
         y="0" /></clipPath><filter
       id="drop-shadow-1"
       x="12.33"
       y="94"
       width="179"
       height="248"
       filterUnits="userSpaceOnUse"><feOffset
         dx="1"
         dy="2"
         id="feOffset1" /><feGaussianBlur
         result="blur"
         stdDeviation="4"
         id="feGaussianBlur1" /><feFlood
         flood-color="#000"
         flood-opacity=".72"
         id="feFlood1" /><feComposite
         in2="blur"
         operator="in"
         id="feComposite1" /><feComposite
         in="SourceGraphic"
         id="feComposite2" /></filter><filter
       id="drop-shadow-2"
       x="80.330002"
       y="137"
       width="100"
       height="192"
       filterUnits="userSpaceOnUse"><feOffset
         dx="1"
         dy="0"
         id="feOffset2" /><feGaussianBlur
         result="blur-2"
         stdDeviation="4"
         id="feGaussianBlur2" /><feFlood
         flood-color="#000"
         flood-opacity=".72"
         id="feFlood2" /><feComposite
         in2="blur-2"
         operator="in"
         id="feComposite3" /><feComposite
         in="SourceGraphic"
         id="feComposite4" /></filter></defs><g
     class="cls-19"
     clip-path="url(#clippath)"
     id="g46"
     transform="scale(0.99800398,1)"><path
       id="rect4"
       style="fill:#0098b6"
       class="cls-16"
       d="M 0,-0.33000001 H 166.33 V 314.99999 H 0 Z" /><g
       class="cls-11"
       id="g45"><path
         class="cls-12"
         d="M 26.5,104 H 169 V 316.67 H 24 V 106.5 c 0,-1.38 1.12,-2.5 2.5,-2.5 z"
         id="path4" /><path
         id="rect5"
         style="fill:#4295b2;fill-opacity:0.566996"
         class="cls-10"
         d="m 45.5,168.5 h 48 v 8.5 h -48 z" /><path
         class="cls-3"
         d="M 26.5,104 H 169 v 17.17 H 24 V 106.5 c 0,-1.38 1.12,-2.5 2.5,-2.5 z"
         id="path5" /><path
         id="circle5"
         style="fill:#ec6a5e"
         class="cls-18"
         d="m 34.5,112.17 a 2.6700001,2.6700001 0 0 1 -2.67,2.67 2.6700001,2.6700001 0 0 1 -2.67,-2.67 2.6700001,2.6700001 0 0 1 2.67,-2.67 2.6700001,2.6700001 0 0 1 2.67,2.67 z" /><path
         id="circle6"
         style="fill:#f4bf4f"
         class="cls-13"
         d="m 42.839998,112.17 a 2.6700001,2.6700001 0 0 1 -2.67,2.67 2.6700001,2.6700001 0 0 1 -2.67,-2.67 2.6700001,2.6700001 0 0 1 2.67,-2.67 2.6700001,2.6700001 0 0 1 2.67,2.67 z" /><path
         id="circle7"
         style="fill:#61c554"
         class="cls-15"
         d="m 51.17,112.17 a 2.6700001,2.6700001 0 0 1 -2.67,2.67 2.6700001,2.6700001 0 0 1 -2.67,-2.67 2.6700001,2.6700001 0 0 1 2.67,-2.67 2.6700001,2.6700001 0 0 1 2.67,2.67 z" /><path
         id="circle8"
         style="fill:#4396b3"
         class="cls-17"
         d="m 70.000002,134.83 a 9.1700001,9.1700001 0 0 1 -9.17,9.17 9.1700001,9.1700001 0 0 1 -9.17,-9.17 9.1700001,9.1700001 0 0 1 9.17,-9.17 9.1700001,9.1700001 0 0 1 9.17,9.17 z" /><path
         id="circle9"
         style="fill:#4396b3"
         class="cls-17"
         d="M 90.17,134.83 A 9.1700001,9.1700001 0 0 1 81,144 a 9.1700001,9.1700001 0 0 1 -9.17,-9.17 9.1700001,9.1700001 0 0 1 9.17,-9.17 9.1700001,9.1700001 0 0 1 9.17,9.17 z" /><path
         id="rect9"
         style="fill:#4295b2"
         class="cls-17"
         d="M 91.830002,125.83 H 109.83 v 18 H 91.830002 Z" /><path
         id="rect10"
         style="fill:#4295b2"
         class="cls-17"
         d="m 111.5,125.83 h 18 v 18 h -18 z" /><path
         id="rect11"
         class="cls-3"
         style="fill:#ffffff"
         d="m 131.67,125.83 h 39.67 v 18 h -39.67 z" /><g
         id="g14"><path
           id="rect12"
           class="cls-3"
           style="fill:#ffffff"
           d="m 94.190002,139.06 h 2.890001 v 1.44 h -2.890001 z" /><path
           id="rect13"
           class="cls-3"
           style="fill:#ffffff"
           d="M 99.389999,139.06 H 102.28 v 1.44 h -2.890001 z" /><path
           id="rect14"
           class="cls-3"
           style="fill:#ffffff"
           d="m 104.58,139.06 h 2.89 v 1.44 h -2.89 z" /></g><g
         id="g15"><path
           id="line14"
           class="cls-9"
           style="fill:none;stroke:#ffffff;stroke-linecap:round;stroke-miterlimit:10"
           d="m 100.83,136.83 v -7.75" /><path
           id="polygon14"
           class="cls-3"
           style="fill:#ffffff"
           d="m 100.83,128 4.09,4.4 -0.73,0.68 -3.36,-3.61 -3.35,3.61 -0.74,-0.68 z" /></g><g
         id="g17"><path
           id="rect15"
           class="cls-3"
           style="fill:#ffffff"
           d="m 113.86,139.06 h 2.89 v 1.44 h -2.89 z" /><path
           id="rect16"
           class="cls-3"
           style="fill:#ffffff"
           d="m 119.06,139.06 h 2.89 v 1.44 h -2.89 z" /><path
           id="rect17"
           class="cls-3"
           style="fill:#ffffff"
           d="m 124.25,139.06 h 2.89 v 1.44 h -2.89 z" /></g><g
         id="g18"><path
           id="line17"
           class="cls-9"
           style="fill:none;stroke:#ffffff;stroke-linecap:round;stroke-miterlimit:10"
           d="m 120.5,128 v 7.75" /><path
           id="polygon17"
           class="cls-3"
           style="fill:#ffffff"
           d="m 120.5,136.83 -4.09,-4.39 0.73,-0.69 3.36,3.62 3.36,-3.62 0.73,0.69 z" /></g><g
         id="g19"><path
           id="line18"
           class="cls-9"
           style="fill:none;stroke:#ffffff;stroke-linecap:round;stroke-miterlimit:10"
           d="m 76.580002,134.83 h 7.75" /><path
           id="polygon18"
           class="cls-3"
           style="fill:#ffffff"
           d="m 85.42,134.83 -4.4,4.09 -0.68,-0.73 3.61,-3.36 -3.61,-3.35 0.68,-0.74 z" /></g><path
         class="cls-8"
         d="m 56.14,134.4 3.21,3.21 c 0.15,0.15 0.38,0.15 0.53,0 l 5.65,-5.65"
         id="path19" /><path
         id="rect19"
         class="cls-5"
         style="fill:#99a6a8"
         d="M 24,148 H 45.5 V 316.17 H 24 Z" /><path
         id="circle19"
         class="cls-12"
         style="fill:#404040"
         d="m 39.83,162.25 a 5.0799999,5.0799999 0 0 1 -5.08,5.08 5.0799999,5.0799999 0 0 1 -5.08,-5.08 5.0799999,5.0799999 0 0 1 5.08,-5.08 5.0799999,5.0799999 0 0 1 5.08,5.08 z" /><path
         id="circle20"
         class="cls-12"
         style="fill:#404040"
         d="m 39.83,179.25 a 5.0799999,5.0799999 0 0 1 -5.08,5.08 5.0799999,5.0799999 0 0 1 -5.08,-5.08 5.0799999,5.0799999 0 0 1 5.08,-5.08 5.0799999,5.0799999 0 0 1 5.08,5.08 z" /><path
         id="circle21"
         class="cls-12"
         style="fill:#404040"
         d="m 39.83,196.25 a 5.0799999,5.0799999 0 0 1 -5.08,5.08 5.0799999,5.0799999 0 0 1 -5.08,-5.08 5.0799999,5.0799999 0 0 1 5.08,-5.08 5.0799999,5.0799999 0 0 1 5.08,5.08 z" /><path
         id="circle22"
         class="cls-12"
         style="fill:#404040"
         d="m 39.83,213.25 a 5.0799999,5.0799999 0 0 1 -5.08,5.08 5.0799999,5.0799999 0 0 1 -5.08,-5.08 5.0799999,5.0799999 0 0 1 5.08,-5.08 5.0799999,5.0799999 0 0 1 5.08,5.08 z" /><path
         id="circle23"
         class="cls-12"
         style="fill:#404040"
         d="m 39.83,230.25 a 5.0799999,5.0799999 0 0 1 -5.08,5.08 5.0799999,5.0799999 0 0 1 -5.08,-5.08 5.0799999,5.0799999 0 0 1 5.08,-5.08 5.0799999,5.0799999 0 0 1 5.08,5.08 z" /><g
         class="cls-1"
         id="g23"><path
           id="rect23"
           class="cls-14"
           style="fill:#3a3a3a"
           d="M 91.830002,149 H 166.39 V 316.17 H 91.830002 Z" /></g><path
         id="rect24"
         class="cls-2"
         style="fill:#505050"
         d="m 112.2535,176.33 h 12.993 c 0.97144,0 1.7535,0.7805 1.7535,1.75 0,0.9695 -0.78206,1.75 -1.7535,1.75 h -12.993 c -0.97144,0 -1.7535,-0.7805 -1.7535,-1.75 0,-0.9695 0.78206,-1.75 1.7535,-1.75 z" /><path
         id="rect25"
         class="cls-6"
         style="fill:#049ca1"
         d="m 143.7535,177.33 h 16.663 c 0.97144,0 1.7535,0.7805 1.7535,1.75 v 0.33 c 0,0.9695 -0.78206,1.75 -1.7535,1.75 h -16.663 c -0.97144,0 -1.7535,-0.7805 -1.7535,-1.75 v -0.33 c 0,-0.9695 0.78206,-1.75 1.7535,-1.75 z" /><path
         id="rect26"
         class="cls-6"
         style="fill:#049ca1"
         d="m 143.7535,241.83 h 16.663 c 0.97144,0 1.7535,0.7805 1.7535,1.75 v 0.33 c 0,0.9695 -0.78206,1.75 -1.7535,1.75 h -16.663 c -0.97144,0 -1.7535,-0.7805 -1.7535,-1.75 v -0.33 c 0,-0.9695 0.78206,-1.75 1.7535,-1.75 z" /><path
         id="rect27"
         class="cls-6"
         style="fill:#049ca1"
         d="m 143.7535,295.5 h 16.663 c 0.97144,0 1.7535,0.7805 1.7535,1.75 v 0.33 c 0,0.9695 -0.78206,1.75 -1.7535,1.75 h -16.663 c -0.97144,0 -1.7535,-0.7805 -1.7535,-1.75 v -0.33 c 0,-0.9695 0.78206,-1.75 1.7535,-1.75 z" /><path
         id="rect28"
         class="cls-20"
         style="fill:#f66a27"
         d="m 153.7535,187.83 h 16.663 c 0.97144,0 1.7535,0.7805 1.7535,1.75 v 0.33 c 0,0.9695 -0.78206,1.75 -1.7535,1.75 h -16.663 c -0.97144,0 -1.7535,-0.7805 -1.7535,-1.75 v -0.33 c 0,-0.9695 0.78206,-1.75 1.7535,-1.75 z" /><path
         id="rect29"
         class="cls-20"
         style="fill:#f66a27"
         d="m 153.7535,199.67 h 16.663 c 0.97144,0 1.7535,0.7805 1.7535,1.75 v 0.33 c 0,0.9695 -0.78206,1.75 -1.7535,1.75 h -16.663 C 152.78206,203.5 152,202.7195 152,201.75 v -0.33 c 0,-0.9695 0.78206,-1.75 1.7535,-1.75 z" /><path
         id="rect30"
         class="cls-4"
         style="fill:#768081"
         d="m 153.7535,210.17 h 16.663 c 0.97144,0 1.7535,0.7805 1.7535,1.75 v 0.33 c 0,0.9695 -0.78206,1.75 -1.7535,1.75 h -16.663 C 152.78206,214 152,213.2195 152,212.25 v -0.33 c 0,-0.9695 0.78206,-1.75 1.7535,-1.75 z" /><path
         id="rect31"
         class="cls-4"
         style="fill:#768081"
         d="m 153.7535,253.08 h 16.663 c 0.97144,0 1.7535,0.7805 1.7535,1.75 v 0.33 c 0,0.9695 -0.78206,1.75 -1.7535,1.75 h -16.663 c -0.97144,0 -1.7535,-0.7805 -1.7535,-1.75 v -0.33 c 0,-0.9695 0.78206,-1.75 1.7535,-1.75 z" /><path
         id="rect32"
         class="cls-4"
         style="fill:#768081"
         d="m 153.7535,265.07999 h 16.663 c 0.97144,0 1.7535,0.7805 1.7535,1.75 v 0.33 c 0,0.9695 -0.78206,1.75 -1.7535,1.75 h -16.663 c -0.97144,0 -1.7535,-0.7805 -1.7535,-1.75 v -0.33 c 0,-0.9695 0.78206,-1.75 1.7535,-1.75 z" /><path
         id="rect33"
         class="cls-20"
         style="fill:#f66a27"
         d="m 153.7535,306.07999 h 16.663 c 0.97144,0 1.7535,0.7805 1.7535,1.75 v 0.33 c 0,0.9695 -0.78206,1.75 -1.7535,1.75 h -16.663 c -0.97144,0 -1.7535,-0.7805 -1.7535,-1.75 v -0.33 c 0,-0.9695 0.78206,-1.75 1.7535,-1.75 z" /><path
         id="rect34"
         class="cls-2"
         style="fill:#505050"
         d="m 112.2535,187.22 h 12.993 c 0.97144,0 1.7535,0.7805 1.7535,1.75 0,0.9695 -0.78206,1.75 -1.7535,1.75 h -12.993 c -0.97144,0 -1.7535,-0.7805 -1.7535,-1.75 0,-0.9695 0.78206,-1.75 1.7535,-1.75 z" /><path
         id="rect35"
         class="cls-2"
         style="fill:#505050"
         d="m 112.2535,198.11 h 12.993 c 0.97144,0 1.7535,0.7805 1.7535,1.75 0,0.9695 -0.78206,1.75 -1.7535,1.75 h -12.993 c -0.97144,0 -1.7535,-0.7805 -1.7535,-1.75 0,-0.9695 0.78206,-1.75 1.7535,-1.75 z" /><path
         id="rect36"
         class="cls-2"
         style="fill:#505050"
         d="m 112.2535,209 h 12.993 c 0.97144,0 1.7535,0.7805 1.7535,1.75 0,0.9695 -0.78206,1.75 -1.7535,1.75 h -12.993 c -0.97144,0 -1.7535,-0.7805 -1.7535,-1.75 0,-0.9695 0.78206,-1.75 1.7535,-1.75 z" /><path
         id="rect37"
         class="cls-2"
         style="fill:#505050"
         d="m 112.2535,219.89 h 12.993 c 0.97144,0 1.7535,0.7805 1.7535,1.75 0,0.9695 -0.78206,1.75 -1.7535,1.75 h -12.993 c -0.97144,0 -1.7535,-0.7805 -1.7535,-1.75 0,-0.9695 0.78206,-1.75 1.7535,-1.75 z" /><path
         id="rect38"
         class="cls-2"
         style="fill:#505050"
         d="m 112.2535,230.78 h 12.993 c 0.97144,0 1.7535,0.7805 1.7535,1.75 0,0.9695 -0.78206,1.75 -1.7535,1.75 h -12.993 c -0.97144,0 -1.7535,-0.7805 -1.7535,-1.75 0,-0.9695 0.78206,-1.75 1.7535,-1.75 z" /><path
         id="rect39"
         class="cls-2"
         style="fill:#505050"
         d="m 112.2535,241.67 h 12.993 c 0.97144,0 1.7535,0.7805 1.7535,1.75 0,0.9695 -0.78206,1.75 -1.7535,1.75 h -12.993 c -0.97144,0 -1.7535,-0.7805 -1.7535,-1.75 0,-0.9695 0.78206,-1.75 1.7535,-1.75 z" /><path
         id="rect40"
         class="cls-2"
         style="fill:#505050"
         d="m 112.2535,252.56 h 12.993 c 0.97144,0 1.7535,0.7805 1.7535,1.75 0,0.9695 -0.78206,1.75 -1.7535,1.75 h -12.993 c -0.97144,0 -1.7535,-0.7805 -1.7535,-1.75 0,-0.9695 0.78206,-1.75 1.7535,-1.75 z" /><path
         id="rect41"
         class="cls-2"
         style="fill:#505050"
         d="m 112.2535,263.44 h 12.993 c 0.97144,0 1.7535,0.7805 1.7535,1.75 0,0.9695 -0.78206,1.75 -1.7535,1.75 h -12.993 c -0.97144,0 -1.7535,-0.7805 -1.7535,-1.75 0,-0.9695 0.78206,-1.75 1.7535,-1.75 z" /><path
         id="rect42"
         class="cls-2"
         style="fill:#505050"
         d="m 112.2535,274.32999 h 12.993 c 0.97144,0 1.7535,0.7805 1.7535,1.75 0,0.9695 -0.78206,1.75 -1.7535,1.75 h -12.993 c -0.97144,0 -1.7535,-0.7805 -1.7535,-1.75 0,-0.9695 0.78206,-1.75 1.7535,-1.75 z" /><path
         id="rect43"
         class="cls-2"
         style="fill:#505050"
         d="m 112.2535,285.22 h 12.993 c 0.97144,0 1.7535,0.7805 1.7535,1.75 0,0.9695 -0.78206,1.75 -1.7535,1.75 h -12.993 c -0.97144,0 -1.7535,-0.7805 -1.7535,-1.75 0,-0.9695 0.78206,-1.75 1.7535,-1.75 z" /><path
         id="rect44"
         class="cls-2"
         style="fill:#505050"
         d="m 112.2535,296.10999 h 12.993 c 0.97144,0 1.7535,0.7805 1.7535,1.75 0,0.9695 -0.78206,1.75 -1.7535,1.75 h -12.993 c -0.97144,0 -1.7535,-0.7805 -1.7535,-1.75 0,-0.9695 0.78206,-1.75 1.7535,-1.75 z" /><path
         id="rect45"
         class="cls-2"
         style="fill:#505050"
         d="m 112.2535,307 h 12.993 c 0.97144,0 1.7535,0.7805 1.7535,1.75 0,0.9695 -0.78206,1.75 -1.7535,1.75 h -12.993 c -0.97144,0 -1.7535,-0.7805 -1.7535,-1.75 0,-0.9695 0.78206,-1.75 1.7535,-1.75 z" /></g></g><g
     id="g1"
     transform="matrix(0.66821834,0,0,0.66821834,44.656226,-33.120997)"
     style="fill:#ffffff"><path
       class="cls-23"
       d="M 66.667616,158.5076 H 41.085334 c -0.561686,0 -1.123373,-0.25531 -1.531873,-0.66381 L 23.060294,141.35062 c -0.4085,-0.4085 -0.663812,-0.97019 -0.663812,-1.53187 v -25.17379 c 0,-0.56168 0.255312,-1.12337 0.663812,-1.53187 l 12.510297,-12.5103 c 0.868062,-0.86806 2.246747,-0.86806 3.114809,0 l 26.909905,26.90991 c 0.868062,0.86806 0.868062,2.24674 0,3.11481 l -0.765936,0.76593 c -0.868062,0.86806 -2.246748,0.86806 -3.114809,0 L 47.876639,117.55552 c -0.4085,-0.4085 -0.970187,-0.66381 -1.531873,-0.66381 h -3.625434 c -0.561686,0 -1.123373,0.25531 -1.531873,0.66381 l -5.004119,5.00412 c -0.408499,0.4085 -0.663811,0.97019 -0.663811,1.53187 v 11.18268 c 0,0.56169 0.255312,1.12337 0.663811,1.53187 l 10.518863,10.51886 c 0,0 0.561687,0.4085 0.868061,0.56169 l 15.267669,4.90199 c 0,0 0.4085,0.20425 0.561687,0.35744 l 4.18712,3.57437 c 0.561687,0.71488 0,1.78719 -0.868061,1.78719 z"
       id="path185-7"
       style="fill:#ffffff;fill-opacity:1;stroke-width:0px" /><path
       id="circle185-3"
       style="stroke-width:0px"
       class="cls-23"
       d="m 90.871209,96.977318 a 1.736123,1.736123 0 0 1 -1.736123,1.736123 1.736123,1.736123 0 0 1 -1.736123,-1.736123 1.736123,1.736123 0 0 1 1.736123,-1.736123 1.736123,1.736123 0 0 1 1.736123,1.736123 z" /><path
       id="circle186-7"
       style="stroke-width:0px"
       class="cls-23"
       d="m 86.684077,96.977318 a 1.633998,1.633998 0 0 1 -1.633998,1.633998 1.633998,1.633998 0 0 1 -1.633998,-1.633998 1.633998,1.633998 0 0 1 1.633998,-1.633998 1.633998,1.633998 0 0 1 1.633998,1.633998 z" /><path
       id="circle187-9"
       style="stroke-width:0px"
       class="cls-23"
       d="m 82.701213,96.977318 a 1.633998,1.633998 0 0 1 -1.633998,1.633998 1.633998,1.633998 0 0 1 -1.633998,-1.633998 1.633998,1.633998 0 0 1 1.633998,-1.633998 1.633998,1.633998 0 0 1 1.633998,1.633998 z" /><path
       id="circle188-0"
       style="stroke-width:0px"
       class="cls-23"
       d="m 82.701213,100.807 a 1.633998,1.633998 0 0 1 -1.633998,1.634 1.633998,1.633998 0 0 1 -1.633998,-1.634 1.633998,1.633998 0 0 1 1.633998,-1.633999 1.633998,1.633998 0 0 1 1.633998,1.633999 z" /><path
       id="circle189-2"
       style="stroke-width:0px"
       class="cls-23"
       d="m 82.701213,104.58572 a 1.633998,1.633998 0 0 1 -1.633998,1.63399 1.633998,1.633998 0 0 1 -1.633998,-1.63399 1.633998,1.633998 0 0 1 1.633998,-1.634 1.633998,1.633998 0 0 1 1.633998,1.634 z" /><path
       id="circle190-3"
       style="stroke-width:0px"
       class="cls-23"
       d="m 82.701213,108.36428 a 1.633998,1.633998 0 0 1 -1.633998,1.634 1.633998,1.633998 0 0 1 -1.633998,-1.634 1.633998,1.633998 0 0 1 1.633998,-1.634 1.633998,1.633998 0 0 1 1.633998,1.634 z" /><path
       id="circle191-9"
       style="stroke-width:0px"
       class="cls-23"
       d="m 82.701213,112.19396 a 1.633998,1.633998 0 0 1 -1.633998,1.634 1.633998,1.633998 0 0 1 -1.633998,-1.634 1.633998,1.633998 0 0 1 1.633998,-1.634 1.633998,1.633998 0 0 1 1.633998,1.634 z" /><path
       id="circle192-9"
       style="stroke-width:0px"
       class="cls-23"
       d="m 82.701213,115.97253 a 1.633998,1.633998 0 0 1 -1.633998,1.63399 1.633998,1.633998 0 0 1 -1.633998,-1.63399 1.633998,1.633998 0 0 1 1.633998,-1.634 1.633998,1.633998 0 0 1 1.633998,1.634 z" /><path
       id="circle193-7"
       style="stroke-width:0px"
       class="cls-23"
       d="m 82.701213,119.80224 a 1.633998,1.633998 0 0 1 -1.633998,1.634 1.633998,1.633998 0 0 1 -1.633998,-1.634 1.633998,1.633998 0 0 1 1.633998,-1.634 1.633998,1.633998 0 0 1 1.633998,1.634 z" /><path
       id="circle194-0"
       style="stroke-width:0px"
       class="cls-23"
       d="m 82.701213,123.58096 a 1.633998,1.633998 0 0 1 -1.633998,1.634 1.633998,1.633998 0 0 1 -1.633998,-1.634 1.633998,1.633998 0 0 1 1.633998,-1.63399 1.633998,1.633998 0 0 1 1.633998,1.63399 z" /><path
       id="circle195-3"
       style="stroke-width:0px"
       class="cls-23"
       d="m 82.701213,127.35952 a 1.633998,1.633998 0 0 1 -1.633998,1.634 1.633998,1.633998 0 0 1 -1.633998,-1.634 1.633998,1.633998 0 0 1 1.633998,-1.634 1.633998,1.633998 0 0 1 1.633998,1.634 z" /><path
       id="circle196-9"
       style="stroke-width:0px"
       class="cls-23"
       d="m 82.701213,131.18921 a 1.633998,1.633998 0 0 1 -1.633998,1.634 1.633998,1.633998 0 0 1 -1.633998,-1.634 1.633998,1.633998 0 0 1 1.633998,-1.634 1.633998,1.633998 0 0 1 1.633998,1.634 z" /><path
       id="circle197-8"
       style="stroke-width:0px"
       class="cls-23"
       d="m 82.701213,134.96777 a 1.633998,1.633998 0 0 1 -1.633998,1.634 1.633998,1.633998 0 0 1 -1.633998,-1.634 1.633998,1.633998 0 0 1 1.633998,-1.63399 1.633998,1.633998 0 0 1 1.633998,1.63399 z" /><path
       id="circle198-6"
       style="stroke-width:0px"
       class="cls-23"
       d="m 82.701213,138.79745 a 1.633998,1.633998 0 0 1 -1.633998,1.634 1.633998,1.633998 0 0 1 -1.633998,-1.634 1.633998,1.633998 0 0 1 1.633998,-1.63399 1.633998,1.633998 0 0 1 1.633998,1.63399 z" /><path
       id="circle199-5"
       style="stroke-width:0px"
       class="cls-23"
       d="m 82.701213,142.57605 a 1.633998,1.633998 0 0 1 -1.633998,1.634 1.633998,1.633998 0 0 1 -1.633998,-1.634 1.633998,1.633998 0 0 1 1.633998,-1.634 1.633998,1.633998 0 0 1 1.633998,1.634 z" /><path
       id="circle200-7"
       style="stroke-width:0px"
       class="cls-23"
       d="m 82.701213,146.35477 a 1.633998,1.633998 0 0 1 -1.633998,1.63399 1.633998,1.633998 0 0 1 -1.633998,-1.63399 1.633998,1.633998 0 0 1 1.633998,-1.634 1.633998,1.633998 0 0 1 1.633998,1.634 z" /><path
       id="circle201-6"
       style="stroke-width:0px"
       class="cls-23"
       d="m 82.701213,150.18445 a 1.633998,1.633998 0 0 1 -1.633998,1.634 1.633998,1.633998 0 0 1 -1.633998,-1.634 1.633998,1.633998 0 0 1 1.633998,-1.634 1.633998,1.633998 0 0 1 1.633998,1.634 z" /><path
       id="circle202-2"
       style="stroke-width:0px"
       class="cls-23"
       d="m 82.701213,153.96301 a 1.633998,1.633998 0 0 1 -1.633998,1.634 1.633998,1.633998 0 0 1 -1.633998,-1.634 1.633998,1.633998 0 0 1 1.633998,-1.634 1.633998,1.633998 0 0 1 1.633998,1.634 z" /><path
       id="circle203-7"
       style="stroke-width:0px"
       class="cls-23"
       d="m 82.701213,157.79269 a 1.633998,1.633998 0 0 1 -1.633998,1.634 1.633998,1.633998 0 0 1 -1.633998,-1.634 1.633998,1.633998 0 0 1 1.633998,-1.63399 1.633998,1.633998 0 0 1 1.633998,1.63399 z" /><path
       id="circle204-0"
       style="stroke-width:0px"
       class="cls-23"
       d="m 78.718374,157.79269 a 1.5318732,1.5318732 0 0 1 -1.531873,1.53188 1.5318732,1.5318732 0 0 1 -1.531874,-1.53188 1.5318732,1.5318732 0 0 1 1.531874,-1.53187 1.5318732,1.5318732 0 0 1 1.531873,1.53187 z" /><path
       id="circle205-3"
       style="stroke-width:0px"
       class="cls-23"
       d="m 78.718374,153.96301 a 1.5318732,1.5318732 0 0 1 -1.531873,1.53188 1.5318732,1.5318732 0 0 1 -1.531874,-1.53188 1.5318732,1.5318732 0 0 1 1.531874,-1.53187 1.5318732,1.5318732 0 0 1 1.531873,1.53187 z" /><path
       id="circle206-9"
       style="stroke-width:0px"
       class="cls-23"
       d="m 78.718374,150.18445 a 1.5318732,1.5318732 0 0 1 -1.531873,1.53187 1.5318732,1.5318732 0 0 1 -1.531874,-1.53187 1.5318732,1.5318732 0 0 1 1.531874,-1.53187 1.5318732,1.5318732 0 0 1 1.531873,1.53187 z" /><path
       id="circle207-9"
       style="stroke-width:0px"
       class="cls-23"
       d="m 78.718374,146.35477 a 1.5318732,1.5318732 0 0 1 -1.531873,1.53187 1.5318732,1.5318732 0 0 1 -1.531874,-1.53187 1.5318732,1.5318732 0 0 1 1.531874,-1.53188 1.5318732,1.5318732 0 0 1 1.531873,1.53188 z" /><path
       id="circle208-9"
       style="stroke-width:0px"
       class="cls-23"
       d="m 78.718374,142.57605 a 1.5318732,1.5318732 0 0 1 -1.531873,1.53187 1.5318732,1.5318732 0 0 1 -1.531874,-1.53187 1.5318732,1.5318732 0 0 1 1.531874,-1.53187 1.5318732,1.5318732 0 0 1 1.531873,1.53187 z" /><path
       id="circle209-1"
       style="stroke-width:0px"
       class="cls-23"
       d="m 78.718374,138.79745 a 1.5318732,1.5318732 0 0 1 -1.531873,1.53188 1.5318732,1.5318732 0 0 1 -1.531874,-1.53188 1.5318732,1.5318732 0 0 1 1.531874,-1.53187 1.5318732,1.5318732 0 0 1 1.531873,1.53187 z" /><path
       id="circle210-7"
       style="stroke-width:0px"
       class="cls-23"
       d="m 78.718374,134.96777 a 1.5318732,1.5318732 0 0 1 -1.531873,1.53188 1.5318732,1.5318732 0 0 1 -1.531874,-1.53188 1.5318732,1.5318732 0 0 1 1.531874,-1.53187 1.5318732,1.5318732 0 0 1 1.531873,1.53187 z" /><path
       id="circle211-2"
       style="stroke-width:0px"
       class="cls-23"
       d="m 78.718374,131.18921 a 1.5318732,1.5318732 0 0 1 -1.531873,1.53187 1.5318732,1.5318732 0 0 1 -1.531874,-1.53187 1.5318732,1.5318732 0 0 1 1.531874,-1.53187 1.5318732,1.5318732 0 0 1 1.531873,1.53187 z" /><path
       id="circle212-3"
       style="stroke-width:0px"
       class="cls-23"
       d="m 78.718374,127.35952 a 1.5318732,1.5318732 0 0 1 -1.531873,1.53187 1.5318732,1.5318732 0 0 1 -1.531874,-1.53187 1.5318732,1.5318732 0 0 1 1.531874,-1.53187 1.5318732,1.5318732 0 0 1 1.531873,1.53187 z" /><path
       id="circle213-6"
       style="stroke-width:0px"
       class="cls-23"
       d="m 78.718374,123.58096 a 1.5318732,1.5318732 0 0 1 -1.531873,1.53188 1.5318732,1.5318732 0 0 1 -1.531874,-1.53188 1.5318732,1.5318732 0 0 1 1.531874,-1.53187 1.5318732,1.5318732 0 0 1 1.531873,1.53187 z" /><path
       id="circle214-5"
       style="stroke-width:0px"
       class="cls-23"
       d="m 78.718374,119.80224 a 1.5318732,1.5318732 0 0 1 -1.531873,1.53187 1.5318732,1.5318732 0 0 1 -1.531874,-1.53187 1.5318732,1.5318732 0 0 1 1.531874,-1.53187 1.5318732,1.5318732 0 0 1 1.531873,1.53187 z" /><path
       id="circle215-5"
       style="stroke-width:0px"
       class="cls-23"
       d="m 78.718374,115.97253 a 1.5318732,1.5318732 0 0 1 -1.531873,1.53187 1.5318732,1.5318732 0 0 1 -1.531874,-1.53187 1.5318732,1.5318732 0 0 1 1.531874,-1.53188 1.5318732,1.5318732 0 0 1 1.531873,1.53188 z" /><path
       id="circle216-8"
       style="stroke-width:0px"
       class="cls-23"
       d="m 78.718374,112.19396 a 1.5318732,1.5318732 0 0 1 -1.531873,1.53188 1.5318732,1.5318732 0 0 1 -1.531874,-1.53188 1.5318732,1.5318732 0 0 1 1.531874,-1.53187 1.5318732,1.5318732 0 0 1 1.531873,1.53187 z" /><path
       id="circle217-1"
       style="stroke-width:0px"
       class="cls-23"
       d="m 78.718374,108.36428 a 1.5318732,1.5318732 0 0 1 -1.531873,1.53187 1.5318732,1.5318732 0 0 1 -1.531874,-1.53187 1.5318732,1.5318732 0 0 1 1.531874,-1.53187 1.5318732,1.5318732 0 0 1 1.531873,1.53187 z" /><path
       id="circle218-4"
       style="stroke-width:0px"
       class="cls-23"
       d="m 78.718374,104.58572 a 1.5318732,1.5318732 0 0 1 -1.531873,1.53187 1.5318732,1.5318732 0 0 1 -1.531874,-1.53187 1.5318732,1.5318732 0 0 1 1.531874,-1.53188 1.5318732,1.5318732 0 0 1 1.531873,1.53188 z" /><path
       id="circle219-7"
       style="stroke-width:0px"
       class="cls-23"
       d="m 78.718374,100.807 a 1.5318732,1.5318732 0 0 1 -1.531873,1.53187 1.5318732,1.5318732 0 0 1 -1.531874,-1.53187 1.5318732,1.5318732 0 0 1 1.531874,-1.531874 1.5318732,1.5318732 0 0 1 1.531873,1.531874 z" /><path
       id="circle220-1"
       style="stroke-width:0px"
       class="cls-23"
       d="m 78.718374,96.977318 a 1.5318732,1.5318732 0 0 1 -1.531873,1.531873 1.5318732,1.5318732 0 0 1 -1.531874,-1.531873 1.5318732,1.5318732 0 0 1 1.531874,-1.531873 1.5318732,1.5318732 0 0 1 1.531873,1.531873 z" /><path
       id="circle221-3"
       style="stroke-width:0px"
       class="cls-23"
       d="m 74.990772,96.977318 a 1.276561,1.276561 0 0 1 -1.276561,1.276561 1.276561,1.276561 0 0 1 -1.276562,-1.276561 1.276561,1.276561 0 0 1 1.276562,-1.276561 1.276561,1.276561 0 0 1 1.276561,1.276561 z" /><path
       id="circle222-8"
       style="stroke-width:0px"
       class="cls-23"
       d="m 71.212199,96.977318 a 1.276561,1.276561 0 0 1 -1.276561,1.276561 1.276561,1.276561 0 0 1 -1.276561,-1.276561 1.276561,1.276561 0 0 1 1.276561,-1.276561 1.276561,1.276561 0 0 1 1.276561,1.276561 z" /><path
       id="circle223-4"
       style="stroke-width:0px"
       class="cls-23"
       d="m 71.212199,100.807 a 1.276561,1.276561 0 0 1 -1.276561,1.27656 1.276561,1.276561 0 0 1 -1.276561,-1.27656 1.276561,1.276561 0 0 1 1.276561,-1.276562 1.276561,1.276561 0 0 1 1.276561,1.276562 z" /><path
       id="circle224-8"
       style="stroke-width:0px"
       class="cls-23"
       d="m 71.212199,104.58572 a 1.276561,1.276561 0 0 1 -1.276561,1.27656 1.276561,1.276561 0 0 1 -1.276561,-1.27656 1.276561,1.276561 0 0 1 1.276561,-1.27656 1.276561,1.276561 0 0 1 1.276561,1.27656 z" /><path
       id="circle225-0"
       style="stroke-width:0px"
       class="cls-23"
       d="m 71.212199,108.36428 a 1.276561,1.276561 0 0 1 -1.276561,1.27656 1.276561,1.276561 0 0 1 -1.276561,-1.27656 1.276561,1.276561 0 0 1 1.276561,-1.27656 1.276561,1.276561 0 0 1 1.276561,1.27656 z" /><path
       id="circle226-4"
       style="stroke-width:0px"
       class="cls-23"
       d="m 71.212199,112.19396 a 1.276561,1.276561 0 0 1 -1.276561,1.27656 1.276561,1.276561 0 0 1 -1.276561,-1.27656 1.276561,1.276561 0 0 1 1.276561,-1.27656 1.276561,1.276561 0 0 1 1.276561,1.27656 z" /><path
       id="circle227-6"
       style="stroke-width:0px"
       class="cls-23"
       d="m 71.212199,115.97253 a 1.276561,1.276561 0 0 1 -1.276561,1.27656 1.276561,1.276561 0 0 1 -1.276561,-1.27656 1.276561,1.276561 0 0 1 1.276561,-1.27656 1.276561,1.276561 0 0 1 1.276561,1.27656 z" /><path
       id="circle228-0"
       style="stroke-width:0px"
       class="cls-23"
       d="m 74.990772,100.807 a 1.276561,1.276561 0 0 1 -1.276561,1.27656 1.276561,1.276561 0 0 1 -1.276562,-1.27656 1.276561,1.276561 0 0 1 1.276562,-1.276562 1.276561,1.276561 0 0 1 1.276561,1.276562 z" /><path
       id="circle229-3"
       style="stroke-width:0px"
       class="cls-23"
       d="m 74.990772,104.58572 a 1.276561,1.276561 0 0 1 -1.276561,1.27656 1.276561,1.276561 0 0 1 -1.276562,-1.27656 1.276561,1.276561 0 0 1 1.276562,-1.27656 1.276561,1.276561 0 0 1 1.276561,1.27656 z" /><path
       id="circle230-2"
       style="stroke-width:0px"
       class="cls-23"
       d="m 74.990772,108.36428 a 1.276561,1.276561 0 0 1 -1.276561,1.27656 1.276561,1.276561 0 0 1 -1.276562,-1.27656 1.276561,1.276561 0 0 1 1.276562,-1.27656 1.276561,1.276561 0 0 1 1.276561,1.27656 z" /><path
       id="circle231-6"
       style="stroke-width:0px"
       class="cls-23"
       d="m 74.990772,112.19396 a 1.276561,1.276561 0 0 1 -1.276561,1.27656 1.276561,1.276561 0 0 1 -1.276562,-1.27656 1.276561,1.276561 0 0 1 1.276562,-1.27656 1.276561,1.276561 0 0 1 1.276561,1.27656 z" /><path
       id="circle232-9"
       style="stroke-width:0px"
       class="cls-23"
       d="m 74.990772,115.97253 a 1.276561,1.276561 0 0 1 -1.276561,1.27656 1.276561,1.276561 0 0 1 -1.276562,-1.27656 1.276561,1.276561 0 0 1 1.276562,-1.27656 1.276561,1.276561 0 0 1 1.276561,1.27656 z" /><path
       id="circle233-4"
       style="stroke-width:0px"
       class="cls-23"
       d="m 74.990772,119.80224 a 1.276561,1.276561 0 0 1 -1.276561,1.27656 1.276561,1.276561 0 0 1 -1.276562,-1.27656 1.276561,1.276561 0 0 1 1.276562,-1.27656 1.276561,1.276561 0 0 1 1.276561,1.27656 z" /><path
       id="circle234-1"
       style="stroke-width:0px"
       class="cls-23"
       d="m 74.990772,123.58096 a 1.276561,1.276561 0 0 1 -1.276561,1.27656 1.276561,1.276561 0 0 1 -1.276562,-1.27656 1.276561,1.276561 0 0 1 1.276562,-1.27656 1.276561,1.276561 0 0 1 1.276561,1.27656 z" /><path
       id="circle235-3"
       style="stroke-width:0px"
       class="cls-23"
       d="m 74.990772,127.35952 a 1.276561,1.276561 0 0 1 -1.276561,1.27656 1.276561,1.276561 0 0 1 -1.276562,-1.27656 1.276561,1.276561 0 0 1 1.276562,-1.27656 1.276561,1.276561 0 0 1 1.276561,1.27656 z" /><path
       id="circle236-7"
       style="stroke-width:0px"
       class="cls-23"
       d="m 74.990772,131.18921 a 1.276561,1.276561 0 0 1 -1.276561,1.27656 1.276561,1.276561 0 0 1 -1.276562,-1.27656 1.276561,1.276561 0 0 1 1.276562,-1.27656 1.276561,1.276561 0 0 1 1.276561,1.27656 z" /><path
       id="circle237-8"
       style="stroke-width:0px"
       class="cls-23"
       d="m 74.990772,134.96777 a 1.276561,1.276561 0 0 1 -1.276561,1.27656 1.276561,1.276561 0 0 1 -1.276562,-1.27656 1.276561,1.276561 0 0 1 1.276562,-1.27656 1.276561,1.276561 0 0 1 1.276561,1.27656 z" /><path
       id="circle238-8"
       style="stroke-width:0px"
       class="cls-23"
       d="m 74.990772,138.79745 a 1.276561,1.276561 0 0 1 -1.276561,1.27657 1.276561,1.276561 0 0 1 -1.276562,-1.27657 1.276561,1.276561 0 0 1 1.276562,-1.27656 1.276561,1.276561 0 0 1 1.276561,1.27656 z" /><path
       id="circle239-3"
       style="stroke-width:0px"
       class="cls-23"
       d="m 71.16109,138.79745 a 1.276561,1.276561 0 0 1 -1.276561,1.27657 1.276561,1.276561 0 0 1 -1.276561,-1.27657 1.276561,1.276561 0 0 1 1.276561,-1.27656 1.276561,1.276561 0 0 1 1.276561,1.27656 z" /><path
       id="circle240-8"
       style="stroke-width:0px"
       class="cls-23"
       d="m 67.076071,138.79745 a 1.1233736,1.1233736 0 0 1 -1.123373,1.12338 1.1233736,1.1233736 0 0 1 -1.123374,-1.12338 1.1233736,1.1233736 0 0 1 1.123374,-1.12337 1.1233736,1.1233736 0 0 1 1.123373,1.12337 z" /><path
       id="circle241-1"
       style="stroke-width:0px"
       class="cls-23"
       d="m 67.076071,108.36428 a 1.1233736,1.1233736 0 0 1 -1.123373,1.12337 1.1233736,1.1233736 0 0 1 -1.123374,-1.12337 1.1233736,1.1233736 0 0 1 1.123374,-1.12337 1.1233736,1.1233736 0 0 1 1.123373,1.12337 z" /><path
       id="circle242-5"
       style="stroke-width:0px"
       class="cls-23"
       d="m 67.076071,104.58572 a 1.1233736,1.1233736 0 0 1 -1.123373,1.12337 1.1233736,1.1233736 0 0 1 -1.123374,-1.12337 1.1233736,1.1233736 0 0 1 1.123374,-1.12338 1.1233736,1.1233736 0 0 1 1.123373,1.12338 z" /><path
       id="circle243-3"
       style="stroke-width:0px"
       class="cls-23"
       d="m 67.076071,100.807 a 1.1233736,1.1233736 0 0 1 -1.123373,1.12337 1.1233736,1.1233736 0 0 1 -1.123374,-1.12337 1.1233736,1.1233736 0 0 1 1.123374,-1.123374 1.1233736,1.1233736 0 0 1 1.123373,1.123374 z" /><path
       id="circle244-5"
       style="stroke-width:0px"
       class="cls-23"
       d="m 67.076071,96.977318 a 1.1233736,1.1233736 0 0 1 -1.123373,1.123373 1.1233736,1.1233736 0 0 1 -1.123374,-1.123373 1.1233736,1.1233736 0 0 1 1.123374,-1.123374 1.1233736,1.1233736 0 0 1 1.123373,1.123374 z" /><path
       id="circle245-4"
       style="stroke-width:0px"
       class="cls-23"
       d="m 63.399645,96.977318 a 1.1233736,1.1233736 0 0 1 -1.123373,1.123373 1.1233736,1.1233736 0 0 1 -1.123374,-1.123373 1.1233736,1.1233736 0 0 1 1.123374,-1.123374 1.1233736,1.1233736 0 0 1 1.123373,1.123374 z" /><path
       id="circle246-3"
       style="stroke-width:0px"
       class="cls-23"
       d="m 59.518902,96.977318 a 1.0723112,1.0723112 0 0 1 -1.072312,1.072311 1.0723112,1.0723112 0 0 1 -1.072311,-1.072311 1.0723112,1.0723112 0 0 1 1.072311,-1.072311 1.0723112,1.0723112 0 0 1 1.072312,1.072311 z" /><path
       id="circle247-6"
       style="stroke-width:0px"
       class="cls-23"
       d="M 59.518902,100.807 A 1.0723112,1.0723112 0 0 1 58.44659,101.87931 1.0723112,1.0723112 0 0 1 57.374279,100.807 1.0723112,1.0723112 0 0 1 58.44659,99.734688 1.0723112,1.0723112 0 0 1 59.518902,100.807 Z" /><path
       id="circle248-5"
       style="stroke-width:0px"
       class="cls-23"
       d="m 59.518902,104.58572 a 1.0723112,1.0723112 0 0 1 -1.072312,1.07231 1.0723112,1.0723112 0 0 1 -1.072311,-1.07231 1.0723112,1.0723112 0 0 1 1.072311,-1.07231 1.0723112,1.0723112 0 0 1 1.072312,1.07231 z" /><path
       id="circle249-9"
       style="stroke-width:0px"
       class="cls-23"
       d="m 59.518902,134.96777 a 1.0723112,1.0723112 0 0 1 -1.072312,1.07231 1.0723112,1.0723112 0 0 1 -1.072311,-1.07231 1.0723112,1.0723112 0 0 1 1.072311,-1.07231 1.0723112,1.0723112 0 0 1 1.072312,1.07231 z" /><path
       id="circle250-5"
       style="stroke-width:0px"
       class="cls-23"
       d="m 55.689183,138.59317 a 0.86806148,0.86806148 0 0 1 -0.868062,0.86806 0.86806148,0.86806148 0 0 1 -0.868061,-0.86806 0.86806148,0.86806148 0 0 1 0.868061,-0.86806 0.86806148,0.86806148 0 0 1 0.868062,0.86806 z" /><path
       id="circle251-4"
       style="stroke-width:0px"
       class="cls-23"
       d="m 55.689183,134.96777 a 0.86806148,0.86806148 0 0 1 -0.868062,0.86806 0.86806148,0.86806148 0 0 1 -0.868061,-0.86806 0.86806148,0.86806148 0 0 1 0.868061,-0.86806 0.86806148,0.86806148 0 0 1 0.868062,0.86806 z" /><path
       id="circle252-9"
       style="stroke-width:0px"
       class="cls-23"
       d="m 55.689183,131.18921 a 0.86806148,0.86806148 0 0 1 -0.868062,0.86806 0.86806148,0.86806148 0 0 1 -0.868061,-0.86806 0.86806148,0.86806148 0 0 1 0.868061,-0.86806 0.86806148,0.86806148 0 0 1 0.868062,0.86806 z" /><path
       id="circle253-1"
       style="stroke-width:0px"
       class="cls-23"
       d="m 55.689183,104.58572 a 0.86806148,0.86806148 0 0 1 -0.868062,0.86806 0.86806148,0.86806148 0 0 1 -0.868061,-0.86806 0.86806148,0.86806148 0 0 1 0.868061,-0.86807 0.86806148,0.86806148 0 0 1 0.868062,0.86807 z" /><path
       id="circle254-7"
       style="stroke-width:0px"
       class="cls-23"
       d="m 55.689183,100.807 a 0.86806148,0.86806148 0 0 1 -0.868062,0.86806 0.86806148,0.86806148 0 0 1 -0.868061,-0.86806 0.86806148,0.86806148 0 0 1 0.868061,-0.868062 0.86806148,0.86806148 0 0 1 0.868062,0.868062 z" /><path
       id="circle255-5"
       style="stroke-width:0px"
       class="cls-23"
       d="m 55.689183,96.977318 a 0.86806148,0.86806148 0 0 1 -0.868062,0.868061 0.86806148,0.86806148 0 0 1 -0.868061,-0.868061 0.86806148,0.86806148 0 0 1 0.868061,-0.868062 0.86806148,0.86806148 0 0 1 0.868062,0.868062 z" /><path
       id="circle256-5"
       style="stroke-width:0px"
       class="cls-23"
       d="m 51.706285,96.977318 a 0.66381168,0.66381168 0 0 1 -0.663812,0.663811 0.66381168,0.66381168 0 0 1 -0.663812,-0.663811 0.66381168,0.66381168 0 0 1 0.663812,-0.663812 0.66381168,0.66381168 0 0 1 0.663812,0.663812 z" /><path
       id="circle257-4"
       style="stroke-width:0px"
       class="cls-23"
       d="m 51.706285,100.807 a 0.66381168,0.66381168 0 0 1 -0.663812,0.66381 0.66381168,0.66381168 0 0 1 -0.663812,-0.66381 0.66381168,0.66381168 0 0 1 0.663812,-0.66381 0.66381168,0.66381168 0 0 1 0.663812,0.66381 z" /><path
       id="circle258-1"
       style="stroke-width:0px"
       class="cls-23"
       d="m 51.706285,104.58572 a 0.66381168,0.66381168 0 0 1 -0.663812,0.66381 0.66381168,0.66381168 0 0 1 -0.663812,-0.66381 0.66381168,0.66381168 0 0 1 0.663812,-0.66382 0.66381168,0.66381168 0 0 1 0.663812,0.66382 z" /><path
       id="circle259-8"
       style="stroke-width:0px"
       class="cls-23"
       d="m 51.706285,127.20635 a 0.66381168,0.66381168 0 0 1 -0.663812,0.66381 0.66381168,0.66381168 0 0 1 -0.663812,-0.66381 0.66381168,0.66381168 0 0 1 0.663812,-0.66381 0.66381168,0.66381168 0 0 1 0.663812,0.66381 z" /><path
       id="circle260-8"
       style="stroke-width:0px"
       class="cls-23"
       d="m 51.706285,131.03604 a 0.66381168,0.66381168 0 0 1 -0.663812,0.66381 0.66381168,0.66381168 0 0 1 -0.663812,-0.66381 0.66381168,0.66381168 0 0 1 0.663812,-0.66381 0.66381168,0.66381168 0 0 1 0.663812,0.66381 z" /><path
       id="circle261-3"
       style="stroke-width:0px"
       class="cls-23"
       d="m 51.706285,134.81461 a 0.66381168,0.66381168 0 0 1 -0.663812,0.66381 0.66381168,0.66381168 0 0 1 -0.663812,-0.66381 0.66381168,0.66381168 0 0 1 0.663812,-0.66382 0.66381168,0.66381168 0 0 1 0.663812,0.66382 z" /><path
       id="circle262-5"
       style="stroke-width:0px"
       class="cls-23"
       d="m 47.774533,123.27444 a 0.66381168,0.66381168 0 0 1 -0.663811,0.66381 0.66381168,0.66381168 0 0 1 -0.663812,-0.66381 0.66381168,0.66381168 0 0 1 0.663812,-0.66381 0.66381168,0.66381168 0 0 1 0.663811,0.66381 z" /><path
       id="circle263-2"
       style="stroke-width:0px"
       class="cls-23"
       d="m 47.774533,127.10412 a 0.66381168,0.66381168 0 0 1 -0.663811,0.66381 0.66381168,0.66381168 0 0 1 -0.663812,-0.66381 0.66381168,0.66381168 0 0 1 0.663812,-0.66381 0.66381168,0.66381168 0 0 1 0.663811,0.66381 z" /><path
       id="circle264-2"
       style="stroke-width:0px"
       class="cls-23"
       d="m 47.774533,130.88284 a 0.66381168,0.66381168 0 0 1 -0.663811,0.66381 0.66381168,0.66381168 0 0 1 -0.663812,-0.66381 0.66381168,0.66381168 0 0 1 0.663812,-0.66381 0.66381168,0.66381168 0 0 1 0.663811,0.66381 z" /><path
       id="circle265-6"
       style="stroke-width:0px"
       class="cls-23"
       d="m 47.978749,96.977318 a 0.66381168,0.66381168 0 0 1 -0.663811,0.663811 0.66381168,0.66381168 0 0 1 -0.663812,-0.663811 0.66381168,0.66381168 0 0 1 0.663812,-0.663812 0.66381168,0.66381168 0 0 1 0.663811,0.663812 z" /><path
       id="circle266-6"
       style="stroke-width:0px"
       class="cls-23"
       d="m 43.791635,96.977318 a 0.45956197,0.45956197 0 0 1 -0.459562,0.459562 0.45956197,0.45956197 0 0 1 -0.459562,-0.459562 0.45956197,0.45956197 0 0 1 0.459562,-0.459562 0.45956197,0.45956197 0 0 1 0.459562,0.459562 z" /><path
       id="circle267-7"
       style="stroke-width:0px"
       class="cls-23"
       d="m 43.791635,100.807 a 0.45956197,0.45956197 0 0 1 -0.459562,0.45956 0.45956197,0.45956197 0 0 1 -0.459562,-0.45956 0.45956197,0.45956197 0 0 1 0.459562,-0.45956 0.45956197,0.45956197 0 0 1 0.459562,0.45956 z" /><path
       id="circle268-8"
       style="stroke-width:0px"
       class="cls-23"
       d="m 43.791635,127.20635 a 0.45956197,0.45956197 0 0 1 -0.459562,0.45956 0.45956197,0.45956197 0 0 1 -0.459562,-0.45956 0.45956197,0.45956197 0 0 1 0.459562,-0.45956 0.45956197,0.45956197 0 0 1 0.459562,0.45956 z" /><path
       id="circle269-4"
       style="stroke-width:0px"
       class="cls-23"
       d="m 47.978749,100.807 a 0.66381168,0.66381168 0 0 1 -0.663811,0.66381 0.66381168,0.66381168 0 0 1 -0.663812,-0.66381 0.66381168,0.66381168 0 0 1 0.663812,-0.66381 0.66381168,0.66381168 0 0 1 0.663811,0.66381 z" /><path
       id="circle270-1"
       style="stroke-width:0px"
       class="cls-23"
       d="m 47.978749,104.58572 a 0.66381168,0.66381168 0 0 1 -0.663811,0.66381 0.66381168,0.66381168 0 0 1 -0.663812,-0.66381 0.66381168,0.66381168 0 0 1 0.663812,-0.66382 0.66381168,0.66381168 0 0 1 0.663811,0.66382 z" /><path
       id="circle271-7"
       style="stroke-width:0px"
       class="cls-23"
       d="m 59.518902,138.79745 a 1.0723112,1.0723112 0 0 1 -1.072312,1.07232 1.0723112,1.0723112 0 0 1 -1.072311,-1.07232 1.0723112,1.0723112 0 0 1 1.072311,-1.07231 1.0723112,1.0723112 0 0 1 1.072312,1.07231 z" /><path
       id="circle272-1"
       style="stroke-width:0px"
       class="cls-23"
       d="m 59.518902,142.57605 a 1.0723112,1.0723112 0 0 1 -1.072312,1.07231 1.0723112,1.0723112 0 0 1 -1.072311,-1.07231 1.0723112,1.0723112 0 0 1 1.072311,-1.07231 1.0723112,1.0723112 0 0 1 1.072312,1.07231 z" /><path
       id="circle273-8"
       style="stroke-width:0px"
       class="cls-23"
       d="m 63.399645,100.807 a 1.1233736,1.1233736 0 0 1 -1.123373,1.12337 1.1233736,1.1233736 0 0 1 -1.123374,-1.12337 1.1233736,1.1233736 0 0 1 1.123374,-1.123374 1.1233736,1.1233736 0 0 1 1.123373,1.123374 z" /><path
       id="circle274-7"
       style="stroke-width:0px"
       class="cls-23"
       d="m 63.399645,104.58572 a 1.1233736,1.1233736 0 0 1 -1.123373,1.12337 1.1233736,1.1233736 0 0 1 -1.123374,-1.12337 1.1233736,1.1233736 0 0 1 1.123374,-1.12338 1.1233736,1.1233736 0 0 1 1.123373,1.12338 z" /><path
       id="circle275-8"
       style="stroke-width:0px"
       class="cls-23"
       d="m 63.399645,108.36428 a 1.1233736,1.1233736 0 0 1 -1.123373,1.12337 1.1233736,1.1233736 0 0 1 -1.123374,-1.12337 1.1233736,1.1233736 0 0 1 1.123374,-1.12337 1.1233736,1.1233736 0 0 1 1.123373,1.12337 z" /><path
       id="circle276-7"
       style="stroke-width:0px"
       class="cls-23"
       d="m 67.076071,112.19396 a 1.1233736,1.1233736 0 0 1 -1.123373,1.12338 1.1233736,1.1233736 0 0 1 -1.123374,-1.12338 1.1233736,1.1233736 0 0 1 1.123374,-1.12337 1.1233736,1.1233736 0 0 1 1.123373,1.12337 z" /><path
       id="circle277-7"
       style="stroke-width:0px"
       class="cls-23"
       d="m 63.552828,138.79745 a 1.1233736,1.1233736 0 0 1 -1.123373,1.12338 1.1233736,1.1233736 0 0 1 -1.123374,-1.12338 1.1233736,1.1233736 0 0 1 1.123374,-1.12337 1.1233736,1.1233736 0 0 1 1.123373,1.12337 z" /><path
       id="circle278-4"
       style="stroke-width:0px"
       class="cls-23"
       d="m 63.552828,142.57605 a 1.1233736,1.1233736 0 0 1 -1.123373,1.12337 1.1233736,1.1233736 0 0 1 -1.123374,-1.12337 1.1233736,1.1233736 0 0 1 1.123374,-1.12337 1.1233736,1.1233736 0 0 1 1.123373,1.12337 z" /><path
       id="circle279-4"
       style="stroke-width:0px"
       class="cls-23"
       d="m 63.552828,146.35477 a 1.1233736,1.1233736 0 0 1 -1.123373,1.12337 1.1233736,1.1233736 0 0 1 -1.123374,-1.12337 1.1233736,1.1233736 0 0 1 1.123374,-1.12338 1.1233736,1.1233736 0 0 1 1.123373,1.12338 z" /><path
       id="circle280-9"
       style="stroke-width:0px"
       class="cls-23"
       d="m 67.076071,142.57605 a 1.1233736,1.1233736 0 0 1 -1.123373,1.12337 1.1233736,1.1233736 0 0 1 -1.123374,-1.12337 1.1233736,1.1233736 0 0 1 1.123374,-1.12337 1.1233736,1.1233736 0 0 1 1.123373,1.12337 z" /><path
       id="circle281-1"
       style="stroke-width:0px"
       class="cls-23"
       d="m 67.076071,146.35477 a 1.1233736,1.1233736 0 0 1 -1.123373,1.12337 1.1233736,1.1233736 0 0 1 -1.123374,-1.12337 1.1233736,1.1233736 0 0 1 1.123374,-1.12338 1.1233736,1.1233736 0 0 1 1.123373,1.12338 z" /><path
       id="circle282-5"
       style="stroke-width:0px"
       class="cls-23"
       d="m 67.076071,150.18445 a 1.1233736,1.1233736 0 0 1 -1.123373,1.12337 1.1233736,1.1233736 0 0 1 -1.123374,-1.12337 1.1233736,1.1233736 0 0 1 1.123374,-1.12338 1.1233736,1.1233736 0 0 1 1.123373,1.12338 z" /><path
       id="circle283-5"
       style="stroke-width:0px"
       class="cls-23"
       d="m 71.16109,142.57605 a 1.276561,1.276561 0 0 1 -1.276561,1.27656 1.276561,1.276561 0 0 1 -1.276561,-1.27656 1.276561,1.276561 0 0 1 1.276561,-1.27656 1.276561,1.276561 0 0 1 1.276561,1.27656 z" /><path
       id="circle284-5"
       style="stroke-width:0px"
       class="cls-23"
       d="m 71.16109,146.35477 a 1.276561,1.276561 0 0 1 -1.276561,1.27656 1.276561,1.276561 0 0 1 -1.276561,-1.27656 1.276561,1.276561 0 0 1 1.276561,-1.27656 1.276561,1.276561 0 0 1 1.276561,1.27656 z" /><path
       id="circle285-8"
       style="stroke-width:0px"
       class="cls-23"
       d="m 71.16109,150.18445 a 1.276561,1.276561 0 0 1 -1.276561,1.27656 1.276561,1.276561 0 0 1 -1.276561,-1.27656 1.276561,1.276561 0 0 1 1.276561,-1.27656 1.276561,1.276561 0 0 1 1.276561,1.27656 z" /><path
       id="circle286-2"
       style="stroke-width:0px"
       class="cls-23"
       d="m 71.16109,153.96301 a 1.276561,1.276561 0 0 1 -1.276561,1.27656 1.276561,1.276561 0 0 1 -1.276561,-1.27656 1.276561,1.276561 0 0 1 1.276561,-1.27656 1.276561,1.276561 0 0 1 1.276561,1.27656 z" /><path
       id="circle287-9"
       style="stroke-width:0px"
       class="cls-23"
       d="m 74.990772,142.57605 a 1.276561,1.276561 0 0 1 -1.276561,1.27656 1.276561,1.276561 0 0 1 -1.276562,-1.27656 1.276561,1.276561 0 0 1 1.276562,-1.27656 1.276561,1.276561 0 0 1 1.276561,1.27656 z" /><path
       id="circle288-8"
       style="stroke-width:0px"
       class="cls-23"
       d="m 74.990772,146.35477 a 1.276561,1.276561 0 0 1 -1.276561,1.27656 1.276561,1.276561 0 0 1 -1.276562,-1.27656 1.276561,1.276561 0 0 1 1.276562,-1.27656 1.276561,1.276561 0 0 1 1.276561,1.27656 z" /><path
       id="circle289-2"
       style="stroke-width:0px"
       class="cls-23"
       d="m 74.990772,150.18445 a 1.276561,1.276561 0 0 1 -1.276561,1.27656 1.276561,1.276561 0 0 1 -1.276562,-1.27656 1.276561,1.276561 0 0 1 1.276562,-1.27656 1.276561,1.276561 0 0 1 1.276561,1.27656 z" /><path
       id="circle290-0"
       style="stroke-width:0px"
       class="cls-23"
       d="m 74.990772,153.96301 a 1.276561,1.276561 0 0 1 -1.276561,1.27656 1.276561,1.276561 0 0 1 -1.276562,-1.27656 1.276561,1.276561 0 0 1 1.276562,-1.27656 1.276561,1.276561 0 0 1 1.276561,1.27656 z" /><path
       id="circle291-7"
       style="stroke-width:0px"
       class="cls-23"
       d="m 74.990772,157.79269 a 1.276561,1.276561 0 0 1 -1.276561,1.27657 1.276561,1.276561 0 0 1 -1.276562,-1.27657 1.276561,1.276561 0 0 1 1.276562,-1.27656 1.276561,1.276561 0 0 1 1.276561,1.27656 z" /><path
       id="circle292-4"
       style="stroke-width:0px"
       class="cls-23"
       d="m 86.684077,100.807 a 1.633998,1.633998 0 0 1 -1.633998,1.634 1.633998,1.633998 0 0 1 -1.633998,-1.634 1.633998,1.633998 0 0 1 1.633998,-1.633999 1.633998,1.633998 0 0 1 1.633998,1.633999 z" /><path
       id="circle293-8"
       style="stroke-width:0px"
       class="cls-23"
       d="m 86.684077,104.58572 a 1.633998,1.633998 0 0 1 -1.633998,1.63399 1.633998,1.633998 0 0 1 -1.633998,-1.63399 1.633998,1.633998 0 0 1 1.633998,-1.634 1.633998,1.633998 0 0 1 1.633998,1.634 z" /><path
       id="circle294-5"
       style="stroke-width:0px"
       class="cls-23"
       d="m 86.684077,108.36428 a 1.633998,1.633998 0 0 1 -1.633998,1.634 1.633998,1.633998 0 0 1 -1.633998,-1.634 1.633998,1.633998 0 0 1 1.633998,-1.634 1.633998,1.633998 0 0 1 1.633998,1.634 z" /><path
       id="circle295-8"
       style="stroke-width:0px"
       class="cls-23"
       d="m 86.684077,112.19396 a 1.633998,1.633998 0 0 1 -1.633998,1.634 1.633998,1.633998 0 0 1 -1.633998,-1.634 1.633998,1.633998 0 0 1 1.633998,-1.634 1.633998,1.633998 0 0 1 1.633998,1.634 z" /><path
       id="circle296-3"
       style="stroke-width:0px"
       class="cls-23"
       d="m 86.684077,115.97253 a 1.633998,1.633998 0 0 1 -1.633998,1.63399 1.633998,1.633998 0 0 1 -1.633998,-1.63399 1.633998,1.633998 0 0 1 1.633998,-1.634 1.633998,1.633998 0 0 1 1.633998,1.634 z" /><path
       id="circle297-0"
       style="stroke-width:0px"
       class="cls-23"
       d="m 86.684077,119.80224 a 1.633998,1.633998 0 0 1 -1.633998,1.634 1.633998,1.633998 0 0 1 -1.633998,-1.634 1.633998,1.633998 0 0 1 1.633998,-1.634 1.633998,1.633998 0 0 1 1.633998,1.634 z" /><path
       id="circle298-6"
       style="stroke-width:0px"
       class="cls-23"
       d="m 86.684077,123.58096 a 1.633998,1.633998 0 0 1 -1.633998,1.634 1.633998,1.633998 0 0 1 -1.633998,-1.634 1.633998,1.633998 0 0 1 1.633998,-1.63399 1.633998,1.633998 0 0 1 1.633998,1.63399 z" /><path
       id="circle299-2"
       style="stroke-width:0px"
       class="cls-23"
       d="m 86.684077,127.35952 a 1.633998,1.633998 0 0 1 -1.633998,1.634 1.633998,1.633998 0 0 1 -1.633998,-1.634 1.633998,1.633998 0 0 1 1.633998,-1.634 1.633998,1.633998 0 0 1 1.633998,1.634 z" /><path
       id="circle300-2"
       style="stroke-width:0px"
       class="cls-23"
       d="m 86.684077,131.18921 a 1.633998,1.633998 0 0 1 -1.633998,1.634 1.633998,1.633998 0 0 1 -1.633998,-1.634 1.633998,1.633998 0 0 1 1.633998,-1.634 1.633998,1.633998 0 0 1 1.633998,1.634 z" /><path
       id="circle301-5"
       style="stroke-width:0px"
       class="cls-23"
       d="m 86.684077,134.96777 a 1.633998,1.633998 0 0 1 -1.633998,1.634 1.633998,1.633998 0 0 1 -1.633998,-1.634 1.633998,1.633998 0 0 1 1.633998,-1.63399 1.633998,1.633998 0 0 1 1.633998,1.63399 z" /><path
       id="circle302-2"
       style="stroke-width:0px"
       class="cls-23"
       d="m 86.684077,138.79745 a 1.633998,1.633998 0 0 1 -1.633998,1.634 1.633998,1.633998 0 0 1 -1.633998,-1.634 1.633998,1.633998 0 0 1 1.633998,-1.63399 1.633998,1.633998 0 0 1 1.633998,1.63399 z" /><path
       id="circle303-2"
       style="stroke-width:0px"
       class="cls-23"
       d="m 86.684077,142.57605 a 1.633998,1.633998 0 0 1 -1.633998,1.634 1.633998,1.633998 0 0 1 -1.633998,-1.634 1.633998,1.633998 0 0 1 1.633998,-1.634 1.633998,1.633998 0 0 1 1.633998,1.634 z" /><path
       id="circle304-7"
       style="stroke-width:0px"
       class="cls-23"
       d="m 86.684077,146.35477 a 1.633998,1.633998 0 0 1 -1.633998,1.63399 1.633998,1.633998 0 0 1 -1.633998,-1.63399 1.633998,1.633998 0 0 1 1.633998,-1.634 1.633998,1.633998 0 0 1 1.633998,1.634 z" /><path
       id="circle305-1"
       style="stroke-width:0px"
       class="cls-23"
       d="m 86.684077,150.18445 a 1.633998,1.633998 0 0 1 -1.633998,1.634 1.633998,1.633998 0 0 1 -1.633998,-1.634 1.633998,1.633998 0 0 1 1.633998,-1.634 1.633998,1.633998 0 0 1 1.633998,1.634 z" /><path
       id="circle306-5"
       style="stroke-width:0px"
       class="cls-23"
       d="m 86.684077,153.96301 a 1.633998,1.633998 0 0 1 -1.633998,1.634 1.633998,1.633998 0 0 1 -1.633998,-1.634 1.633998,1.633998 0 0 1 1.633998,-1.634 1.633998,1.633998 0 0 1 1.633998,1.634 z" /><path
       id="circle307-2"
       style="stroke-width:0px"
       class="cls-23"
       d="m 86.684077,157.79269 a 1.633998,1.633998 0 0 1 -1.633998,1.634 1.633998,1.633998 0 0 1 -1.633998,-1.634 1.633998,1.633998 0 0 1 1.633998,-1.63399 1.633998,1.633998 0 0 1 1.633998,1.63399 z" /><path
       id="circle308-1"
       style="stroke-width:0px"
       class="cls-23"
       d="m 90.871209,100.807 a 1.736123,1.736123 0 0 1 -1.736123,1.73612 1.736123,1.736123 0 0 1 -1.736123,-1.73612 1.736123,1.736123 0 0 1 1.736123,-1.736124 1.736123,1.736123 0 0 1 1.736123,1.736124 z" /><path
       id="circle309-1"
       style="stroke-width:0px"
       class="cls-23"
       d="m 90.871209,104.58572 a 1.736123,1.736123 0 0 1 -1.736123,1.73612 1.736123,1.736123 0 0 1 -1.736123,-1.73612 1.736123,1.736123 0 0 1 1.736123,-1.73613 1.736123,1.736123 0 0 1 1.736123,1.73613 z" /><path
       id="circle310-0"
       style="stroke-width:0px"
       class="cls-23"
       d="m 90.871209,108.36428 a 1.736123,1.736123 0 0 1 -1.736123,1.73612 1.736123,1.736123 0 0 1 -1.736123,-1.73612 1.736123,1.736123 0 0 1 1.736123,-1.73612 1.736123,1.736123 0 0 1 1.736123,1.73612 z" /><path
       id="circle311-1"
       style="stroke-width:0px"
       class="cls-23"
       d="m 90.871209,112.19396 a 1.736123,1.736123 0 0 1 -1.736123,1.73613 1.736123,1.736123 0 0 1 -1.736123,-1.73613 1.736123,1.736123 0 0 1 1.736123,-1.73612 1.736123,1.736123 0 0 1 1.736123,1.73612 z" /><path
       id="circle312-8"
       style="stroke-width:0px"
       class="cls-23"
       d="m 90.871209,115.97253 a 1.736123,1.736123 0 0 1 -1.736123,1.73612 1.736123,1.736123 0 0 1 -1.736123,-1.73612 1.736123,1.736123 0 0 1 1.736123,-1.73613 1.736123,1.736123 0 0 1 1.736123,1.73613 z" /><path
       id="circle313-7"
       style="stroke-width:0px"
       class="cls-23"
       d="m 90.871209,119.80224 a 1.736123,1.736123 0 0 1 -1.736123,1.73612 1.736123,1.736123 0 0 1 -1.736123,-1.73612 1.736123,1.736123 0 0 1 1.736123,-1.73612 1.736123,1.736123 0 0 1 1.736123,1.73612 z" /><path
       id="circle314-6"
       style="stroke-width:0px"
       class="cls-23"
       d="m 90.871209,123.58096 a 1.736123,1.736123 0 0 1 -1.736123,1.73613 1.736123,1.736123 0 0 1 -1.736123,-1.73613 1.736123,1.736123 0 0 1 1.736123,-1.73612 1.736123,1.736123 0 0 1 1.736123,1.73612 z" /><path
       id="circle315-0"
       style="stroke-width:0px"
       class="cls-23"
       d="m 90.871209,127.35952 a 1.736123,1.736123 0 0 1 -1.736123,1.73612 1.736123,1.736123 0 0 1 -1.736123,-1.73612 1.736123,1.736123 0 0 1 1.736123,-1.73612 1.736123,1.736123 0 0 1 1.736123,1.73612 z" /><path
       id="circle316-0"
       style="stroke-width:0px"
       class="cls-23"
       d="m 90.871209,131.18921 a 1.736123,1.736123 0 0 1 -1.736123,1.73612 1.736123,1.736123 0 0 1 -1.736123,-1.73612 1.736123,1.736123 0 0 1 1.736123,-1.73612 1.736123,1.736123 0 0 1 1.736123,1.73612 z" /><path
       id="circle317-9"
       style="stroke-width:0px"
       class="cls-23"
       d="m 90.871209,134.96777 a 1.736123,1.736123 0 0 1 -1.736123,1.73613 1.736123,1.736123 0 0 1 -1.736123,-1.73613 1.736123,1.736123 0 0 1 1.736123,-1.73612 1.736123,1.736123 0 0 1 1.736123,1.73612 z" /><path
       id="circle318-5"
       style="stroke-width:0px"
       class="cls-23"
       d="m 90.871209,138.79745 a 1.736123,1.736123 0 0 1 -1.736123,1.73613 1.736123,1.736123 0 0 1 -1.736123,-1.73613 1.736123,1.736123 0 0 1 1.736123,-1.73612 1.736123,1.736123 0 0 1 1.736123,1.73612 z" /><path
       id="circle319-6"
       style="stroke-width:0px"
       class="cls-23"
       d="m 90.871209,142.57605 a 1.736123,1.736123 0 0 1 -1.736123,1.73612 1.736123,1.736123 0 0 1 -1.736123,-1.73612 1.736123,1.736123 0 0 1 1.736123,-1.73612 1.736123,1.736123 0 0 1 1.736123,1.73612 z" /><path
       id="circle320-2"
       style="stroke-width:0px"
       class="cls-23"
       d="m 90.871209,146.35477 a 1.736123,1.736123 0 0 1 -1.736123,1.73612 1.736123,1.736123 0 0 1 -1.736123,-1.73612 1.736123,1.736123 0 0 1 1.736123,-1.73613 1.736123,1.736123 0 0 1 1.736123,1.73613 z" /><path
       id="circle321-8"
       style="stroke-width:0px"
       class="cls-23"
       d="m 90.871209,150.18445 a 1.736123,1.736123 0 0 1 -1.736123,1.73612 1.736123,1.736123 0 0 1 -1.736123,-1.73612 1.736123,1.736123 0 0 1 1.736123,-1.73612 1.736123,1.736123 0 0 1 1.736123,1.73612 z" /><path
       id="circle322-5"
       style="stroke-width:0px"
       class="cls-23"
       d="m 90.871209,153.96301 a 1.736123,1.736123 0 0 1 -1.736123,1.73613 1.736123,1.736123 0 0 1 -1.736123,-1.73613 1.736123,1.736123 0 0 1 1.736123,-1.73612 1.736123,1.736123 0 0 1 1.736123,1.73612 z" /><path
       id="circle323-9"
       style="stroke-width:0px"
       class="cls-23"
       d="m 90.871209,157.79269 a 1.736123,1.736123 0 0 1 -1.736123,1.73613 1.736123,1.736123 0 0 1 -1.736123,-1.73613 1.736123,1.736123 0 0 1 1.736123,-1.73612 1.736123,1.736123 0 0 1 1.736123,1.73612 z" /></g></svg>
